<?xml version="1.0" standalone="no"?>
<!DOCTYPE svg PUBLIC "-//W3C//DTD SVG 20010904//EN"
 "http://www.w3.org/TR/2001/REC-SVG-20010904/DTD/svg10.dtd">
<svg version="1.0" xmlns="http://www.w3.org/2000/svg"
 width="600.000000pt" height="660.000000pt" viewBox="0 0 600.000000 660.000000"
 preserveAspectRatio="xMidYMid meet">

<g transform="translate(0.000000,660.000000) scale(0.100000,-0.100000)"
fill="#000000" stroke="none">
<path d="M762 3298 l3 -2783 138 -3 137 -3 0 2651 0 2650 2167 2 2167 3 64
120 c35 66 66 126 69 133 4 9 -474 12 -2371 12 l-2376 0 2 -2782z"/>
<path d="M1711 5065 l-281 -364 2 -2093 3 -2093 433 -3 432 -2 0 1155 0 1155
790 0 789 0 24 43 c14 23 89 168 167 322 78 154 173 339 211 411 38 72 69 134
69 137 0 4 -461 7 -1025 7 l-1025 0 2 401 3 401 1206 -1 1206 -2 229 437 c126
240 231 441 232 445 2 5 -702 9 -1591 9 l-1595 0 -281 -365z"/>
<path d="M4745 2080 c-4 -7 -4 -208 0 -449 4 -240 4 -451 0 -469 l-7 -32 -851
0 -852 0 -70 -132 c-38 -72 -71 -135 -73 -139 -2 -5 473 -9 1062 -9 l1066 0
-2 618 -3 617 -132 3 c-91 2 -133 0 -138 -8z"/>
</g>
</svg>
