<?xml version="1.0" standalone="no"?>
<!DOCTYPE svg PUBLIC "-//W3C//DTD SVG 20010904//EN"
 "http://www.w3.org/TR/2001/REC-SVG-20010904/DTD/svg10.dtd">
<svg version="1.0" xmlns="http://www.w3.org/2000/svg"
 width="1024.000000pt" height="1024.000000pt" viewBox="0 0 1024.000000 1024.000000"
 preserveAspectRatio="xMidYMid meet">

<g transform="translate(0.000000,1024.000000) scale(0.100000,-0.100000)"
fill="#000000" stroke="none">
<path d="M2982 5118 l3 -2783 138 -3 137 -3 0 2651 0 2650 2167 2 2167 3 64
120 c35 66 66 126 69 133 4 9 -474 12 -2371 12 l-2376 0 2 -2782z"/>
<path d="M4114 7123 c-54 -71 -180 -234 -281 -365 l-183 -236 2 -2094 3 -2093
433 -3 432 -2 0 1155 0 1155 790 0 789 0 24 43 c33 58 447 866 447 872 0 3
-461 5 -1025 5 l-1025 0 2 401 3 401 1206 -2 1207 -1 147 283 c82 156 175 335
208 398 33 63 70 134 83 157 13 23 24 44 24 47 0 3 -717 6 -1594 6 l-1595 0
-97 -127z"/>
<path d="M6964 3899 c-3 -6 -3 -204 1 -439 4 -235 4 -446 0 -469 l-7 -41 -851
0 -852 0 -70 -132 c-38 -72 -71 -135 -73 -139 -2 -5 473 -9 1062 -9 l1066 0
-2 618 -3 617 -132 3 c-90 2 -134 -1 -139 -9z"/>
</g>
</svg>
